<svg fill="none" height="40" viewBox="0 0 40 40" width="40" xmlns="http://www.w3.org/2000/svg"><path d="m38.1665 9.91489v20.17021c0 3.2681-1.7236 4.9149-5.0925 4.9149l-14.4809-.0128c-1.9326 0-3.5256-.6255-4.8575-1.9787l-10.05441-10.0212c-1.07073-1.0596-1.51469-2.0171-1.51469-3.0256s.45702-1.9532 1.51469-3.0128l10.04131-10.13613c1.3319-1.36596 2.925-1.81277 4.8575-1.81277h14.494c3.3689 0 5.0925 1.64681 5.0925 4.91489zm-10.0936 3.72771-4.8574 4.7234-4.8314-4.7107c-.235-.217-.4962-.3447-.8356-.3447-.666 0-1.2014.4979-1.2014 1.1618 0 .3063.1306.5999.3657.8297l4.8051 4.7107-4.8051 4.7106c-.2351.2298-.3657.5106-.3657.8298 0 .6511.5354 1.1745 1.2014 1.1745.3394 0 .6398-.115.8748-.3575l4.7922-4.7106 4.8052 4.7106c.222.2425.5353.3575.8749.3575.6659 0 1.2013-.5234 1.2013-1.1745 0-.3319-.1045-.6128-.3526-.8425l-4.8183-4.6979 4.8313-4.7234c.2612-.2554.3526-.5234.3526-.8426 0-.6511-.5354-1.1617-1.1882-1.1617-.3265 0-.6007.1149-.8488.3575z" fill="#000"/></svg>