<svg fill="none" height="40" viewBox="0 0 40 40" width="40" xmlns="http://www.w3.org/2000/svg" xmlns:xlink="http://www.w3.org/1999/xlink"><clipPath id="a"><path d="m.166504 0h40v40h-40z"/></clipPath><g clip-path="url(#a)"><path clip-rule="evenodd" d="m2.66273 24.9185c.14202.6085-.09941 1.1011-.56807 1.2459-.51127.1594-1.02253-.1159-1.178754-.7099-.667485-2.4339-.8379072-5.0416-.710091-7.1858.042606-.507.38345-.9127 1.008335-.8692.48286.029.8237.3767.8095.9706-.07101 2.5354.17042 4.723.63908 6.5484zm0-10.4165c-.22722.6374-.8237.8258-1.29237.6519-.468654-.1883-.766893-.7533-.468654-1.5646 3.280624-9.14163 10.807594-13.5893 18.916894-13.5893 3.593 0 6.4192.738865 9.0181 2.4339.4119.26078.7101.63745.4545 1.21695-.2272.53604-.8521.5795-1.3918.24629-2.1019-1.2749-4.7008-2.02825-8.0808-2.02825-7.1578 0-14.24449 4.1434-17.15587 12.63311zm37.30827 6.2296c.0568.5795-.3267 1.0141-.8522 1.0141-.5254 0-.852-.4346-.9089-.9851-.6106-6.6642-3.1954-11.14092-6.8737-14.58892-.4828-.44912-.4544-.99964-.1278-1.36183.2841-.33321.8663-.42014 1.3208-.01449 4.1469 3.65086 6.6749 8.57664 7.4418 15.93624zm-34.25488 10.9816c-.45446.4056-1.07934.3042-1.37758-.1449-.26984-.3912-.19883-.9707.18462-1.3039.88052-.7823 1.36338-2.0283 1.36338-3.2887-.01241-.8607-.23351-1.7435-.4786-2.7222-.31594-1.2616-.67175-2.6823-.67175-4.4201 0-8.2579 6.78851-15.18292 14.89771-15.18292 9.8845 0 16.1475 7.99712 16.1475 19.63062 0 4.2738-.7101 7.519-1.477 9.6776-.1988.5505-.8237.7244-1.2639.5216-.4261-.2028-.6391-.7534-.4119-1.2894.7243-1.8979 1.3492-4.8823 1.3492-8.8953-.0426-10.5615-5.5672-17.8052-14.3439-17.8052-7.1151 0-13.09405 6.0992-13.09405 13.343 0 1.7482.30899 2.9232.60059 4.0321.25697.9773.50045 1.9032.5071 3.1247.01425 1.7964-.63907 3.6219-1.93142 4.723zm6.61808-6.5919c-.0414-.1097-.0843-.2221-.1283-.3372-.4843-1.2681-1.093-2.8619-1.093-4.7479 0-5.0851 3.735-8.8953 8.7057-8.8953 1.832 0 2.6557.2753 4.2037 1.1011.5113.2607.9799.1014 1.1646-.2609.2414-.449.1562-1.0141-.4403-1.3762-1.2782-.79687-3.1102-1.3329-4.928-1.3329-5.979 0-10.53778 4.6505-10.53778 10.7642 0 2.1442.58223 4.0565 1.27818 5.795.2414.565.7385.8113 1.2923.5795.4829-.2028.6675-.7388.4829-1.2894zm-.1704 4.8099c-.4971 1.9558-2.34334 4.3607-3.69249 5.0706-.58229.3043-1.09356.0724-1.29238-.3332-.18464-.3911-.11361-.9272.46862-1.3328 1.33502-.9418 2.30071-2.2022 2.79775-3.9407.1705-.5505.6533-.8113 1.122-.6664.497.1739.7243.7099.5965 1.2025zm17.2836-4.5781c0-4.3172-.8663-8.0261-2.6274-10.6627-.3692-.5651-.2272-1.1736.2415-1.4343.4544-.2463 1.0225-.1014 1.3634.4636 1.69 2.7236 2.8261 6.2441 2.8261 11.5755 0 5.0416-1.406 9.866-3.6498 12.9808-.3409.4491-1.0084.4636-1.3918.0724-.3692-.3621-.3125-.9272-.0142-1.3328 2.0166-2.6512 3.2522-7.0554 3.2522-11.6625zm-17.1558 12.0826c2.9398-2.4194 4.573-6.2731 4.5446-10.5614-.0161-1.8304-.3833-3.2702-.6985-4.5064-.2411-.9457-.4519-1.7723-.4519-2.5635 0-2.4049 1.6617-4.013 4.0475-4.013 3.6215 0 4.9565 4.042 5.0417 9.33.142 5.8674-1.9456 10.7207-4.644 13.1691-.3835.3477-.4687.8692-.1988 1.2604.2982.4491.9373.536 1.3634.1304 2.8829-2.6657 5.2262-8.4027 5.1978-14.6758-.0284-6.389-1.8604-11.0541-6.7601-11.0541-3.309 0-5.8369 2.2746-5.8369 5.6937 0 .974.2451 2.0616.5047 3.2137.2888 1.2813.5955 2.6424.603 4.0155.0285 3.7088-1.3491 7.012-3.8487 9.0982-.4544.3767-.5112.9127-.2414 1.3328.3266.4637.9231.5216 1.3776.1304zm8.166-4.4332c-.7953 2.5643-2.5137 4.8533-3.9623 5.9399-.4687.3477-1.0935.2753-1.3633-.1883-.2841-.4202-.1563-.9851.2556-1.3184 1.2497-.9706 2.4427-2.4774 3.4084-5.0851.1562-.4491.6391-.7099 1.1788-.5215.5113.1738.5964.7823.4828 1.1734zm.3977-12.6475c.9373 2.6946 1.1646 6.0123.6249 8.4607-.1137.6085-.5965.9272-1.1362.8258-.5538-.1015-.7526-.5796-.6532-1.0866.4686-2.2746.2698-5.0851-.6107-7.7074-.1705-.565.0994-1.0431.5822-1.1879.4971-.1739.98.0579 1.193.6954z" fill="#000" fill-rule="evenodd"/></g></svg>