<svg fill="none" height="40" viewBox="0 0 40 40" width="40" xmlns="http://www.w3.org/2000/svg" xmlns:xlink="http://www.w3.org/1999/xlink"><clipPath id="a"><path d="m.166504 0h40v40h-40z"/></clipPath><g clip-path="url(#a)"><path clip-rule="evenodd" d="m2.99398 11.4558c0 .9146-.49521 1.4441-1.40575 1.4441-.910544 0-1.421726-.5295-1.421726-1.4441v-5.23059c0-4.1075 2.092646-6.1772974 6.214056-6.1772974h5.20774c.9105 0 1.4376.5134374 1.4376 1.4279974 0 .89851-.5271 1.41195-1.4376 1.41195h-5.14384c-2.23642 0-3.45048 1.18732-3.45048 3.4978zm36.94892 0c0 .9146-.4952 1.4441-1.4217 1.4441-.8946 0-1.4058-.5295-1.4058-1.4441v-5.07014c0-2.31048-1.262-3.4978-3.4505-3.4978h-5.1437c-.9106 0-1.4378-.51344-1.4378-1.41195 0-.91456.5272-1.4279974 1.4378-1.4279974h5.2076c4.1374 0 6.2141 2.1018774 6.2141 6.1772974zm-28.3546 28.544h-5.20774c-4.12141 0-6.214056-2.0699-6.214056-6.1774v-5.2306c0-.9145.495208-1.444 1.421726-1.444.89457 0 1.40575.5295 1.40575 1.444v5.0702c0 2.3105 1.21406 3.4978 3.45048 3.4978h5.14384c.9105 0 1.4376.5134 1.4376 1.412 0 .9145-.5271 1.428-1.4376 1.428zm22.1405 0h-5.2076c-.9106 0-1.4378-.5135-1.4378-1.428 0-.8986.5272-1.412 1.4378-1.412h5.1437c2.1885 0 3.4505-1.1873 3.4505-3.4978v-5.0702c0-.9145.4952-1.444 1.4058-1.444.9105 0 1.4217.5295 1.4217 1.444v5.2306c0 4.0755-2.0767 6.1774-6.2141 6.1774zm-19.92-23.0242c0 .8985-.607 1.5082-1.4856 1.5082-.8627 0-1.4697-.6097-1.4697-1.5082v-2.8079c0-.8664.607-1.4922 1.4697-1.4922.8786 0 1.4856.6097 1.4856 1.4922zm4.7604 6.3537h-.1758c-.9424 0-1.4696-.4492-1.4696-1.2354 0-.6579.5112-1.1392 1.1662-1.1392h.6869c.2715 0 .4792-.1765.4792-.4814v-6.6586c0-.722.4632-1.1713 1.1821-1.1713.7029 0 1.1502.4493 1.1502 1.1713v6.4661c0 1.9896-1.0544 3.0485-3.0192 3.0485zm10.5751-6.3537c0 .8985-.6071 1.5082-1.4537 1.5082-.8946 0-1.5016-.6097-1.5016-1.5082v-2.8079c0-.8825.607-1.4922 1.5016-1.4922.8466 0 1.4537.6258 1.4537 1.4922zm-2.5879 10.3329c-1.7572 1.7649-4.2173 2.8078-6.6294 2.8078-2.4441 0-4.984-.9787-6.6454-2.8239-.2236-.2567-.3514-.5455-.3514-.8825 0-.6738.5112-1.1392 1.1662-1.1392.4312 0 .6869.1926.9744.4975 1.214 1.2194 3.0511 2.0216 4.8562 2.0216 1.853 0 3.6901-.8343 4.8403-2.0216.3674-.3851.623-.4975.9584-.4975.655 0 1.1661.4654 1.1661 1.1392 0 .3851-.1277.69-.3354.8986z" fill="#000" fill-rule="evenodd"/></g></svg>